<?xml version="1.0" standalone="no"?>
<!DOCTYPE svg PUBLIC "-//W3C//DTD SVG 20010904//EN"
 "http://www.w3.org/TR/2001/REC-SVG-20010904/DTD/svg10.dtd">
<svg version="1.0" xmlns="http://www.w3.org/2000/svg"
 width="2948.000000pt" height="2948.000000pt" viewBox="0 0 2948.000000 2948.000000"
 preserveAspectRatio="xMidYMid meet">
<metadata>
Created by potrace 1.14, written by Peter Selinger 2001-2017
</metadata>
<g transform="translate(0.000000,2948.000000) scale(0.100000,-0.100000)"
fill="#000000" stroke="none">
<path d="M14820 28120 c-411 -26 -879 -100 -1255 -199 l-110 -29 -155 18
c-334 40 -593 54 -995 54 -397 0 -573 -9 -900 -45 -1238 -137 -2246 -550
-2870 -1174 -364 -365 -581 -774 -671 -1270 -29 -157 -27 -595 3 -762 50 -276
135 -498 279 -736 30 -49 54 -92 54 -97 0 -15 -360 -373 -480 -476 -452 -393
-1025 -774 -1752 -1168 l-88 -47 -94 193 c-395 807 -613 1692 -672 2733 -5 97
-11 130 -31 172 -31 68 -98 134 -171 170 -50 25 -68 28 -152 28 -82 0 -103 -4
-150 -26 -187 -88 -363 -349 -545 -808 -195 -493 -412 -1312 -540 -2035 -14
-77 -26 -141 -29 -143 -4 -5 -129 133 -227 252 -194 235 -405 545 -589 865
-126 221 -173 286 -245 343 -84 67 -148 91 -240 91 -66 0 -90 -4 -138 -26 -78
-36 -154 -116 -200 -209 -81 -165 -185 -671 -229 -1114 -17 -175 -17 -788 0
-960 72 -712 248 -1335 541 -1924 33 -66 57 -121 53 -121 -9 0 -162 121 -262
208 -41 36 -158 149 -260 252 -185 186 -265 251 -365 295 -204 91 -396 24
-508 -175 -68 -123 -107 -272 -144 -555 -26 -198 -26 -726 0 -900 100 -675
352 -1242 772 -1740 105 -125 314 -331 424 -420 l75 -60 -38 -3 c-45 -4 -318
22 -466 44 -156 24 -261 16 -343 -24 -219 -108 -271 -390 -143 -769 71 -209
168 -397 331 -643 491 -739 1279 -1376 2120 -1715 66 -27 122 -50 124 -51 1
-2 -9 -19 -24 -38 -44 -57 -44 -106 0 -211 83 -204 226 -445 371 -625 85 -107
253 -275 364 -363 223 -180 574 -376 860 -482 402 -149 867 -241 1440 -287
176 -13 861 -17 1052 -5 l126 8 -13 -60 c-73 -313 -61 -713 30 -1017 28 -91
107 -144 192 -128 59 11 97 57 153 183 91 207 212 404 364 591 95 119 231 256
222 225 -3 -11 -14 -87 -26 -170 -74 -549 -64 -1108 31 -1635 23 -129 88 -410
118 -512 l19 -67 -66 -49 c-84 -63 -214 -196 -275 -283 -102 -144 -181 -336
-212 -515 -30 -172 -15 -424 34 -582 l19 -61 -326 -244 -325 -245 -121 162
c-229 305 -365 466 -580 684 -390 396 -730 614 -1076 688 -134 29 -346 25
-473 -9 -113 -30 -255 -97 -353 -166 -82 -57 -236 -198 -281 -257 -26 -34 -45
-46 -110 -68 -111 -39 -292 -135 -403 -214 -125 -88 -365 -328 -453 -452 -81
-115 -179 -308 -207 -410 -26 -93 -36 -245 -21 -325 24 -133 110 -256 233
-336 97 -62 178 -82 307 -77 119 5 129 9 346 128 100 54 263 112 369 131 112
19 303 7 406 -26 546 -175 1025 -871 1435 -2085 34 -102 79 -225 100 -275 82
-199 194 -344 311 -401 53 -26 69 -29 154 -29 84 0 102 3 152 28 231 113 418
495 500 1018 30 196 33 688 5 869 -16 100 -47 250 -63 302 -3 12 133 122 548
440 304 233 559 428 566 432 7 4 44 -5 85 -23 308 -128 670 -122 995 16 l83
35 117 -109 c839 -782 1836 -1243 2994 -1385 161 -19 231 -22 583 -22 318 -1
431 3 553 17 200 23 479 70 625 106 l117 28 64 -81 c128 -162 297 -299 481
-390 136 -68 231 -100 380 -129 l115 -22 0 -40 c0 -64 -41 -940 -45 -943 -1
-2 -47 26 -101 61 -352 230 -711 337 -1129 337 -321 0 -581 -60 -870 -200
-575 -279 -972 -793 -1101 -1425 -23 -113 -25 -144 -20 -240 16 -266 86 -414
231 -486 177 -87 402 -18 697 211 l63 49 21 -102 c92 -438 373 -640 752 -541
151 40 294 115 519 275 589 419 1075 552 1527 418 144 -43 287 -111 561 -269
273 -157 418 -210 575 -210 188 0 338 76 511 258 133 140 199 284 199 437 0
82 -19 165 -55 235 -14 28 -23 50 -21 50 2 0 67 -39 143 -87 244 -154 471
-253 647 -284 38 -6 114 -9 171 -7 87 4 111 9 168 35 86 41 150 101 187 177
54 110 62 211 30 366 -10 52 -18 96 -16 98 2 1 46 -9 97 -23 313 -88 774 -178
1129 -220 190 -23 569 -31 712 -15 300 33 475 120 543 271 25 56 27 70 23 153
-3 65 -10 105 -26 140 -12 27 -20 51 -18 54 3 2 51 -2 108 -9 162 -22 668 -19
833 4 575 81 1083 282 1540 608 314 225 381 312 379 499 0 74 -4 95 -31 152
-40 85 -97 147 -175 189 l-63 34 -285 6 c-1345 33 -2662 360 -3865 961 -232
116 -438 228 -432 235 3 2 69 -16 148 -41 1023 -316 2188 -409 3286 -260 1297
175 2542 686 3592 1475 216 162 331 258 358 298 31 46 31 116 1 161 -50 72
-41 70 -445 101 -403 31 -608 49 -898 79 -306 32 -293 19 -114 112 1026 530
1911 1396 2480 2423 162 293 309 625 309 697 0 49 -26 97 -71 130 -57 43 -68
41 -669 -140 -951 -286 -1358 -393 -1750 -461 -190 -33 -189 -47 -4 100 181
144 359 304 564 509 632 632 1056 1265 1156 1727 23 105 23 296 1 387 -64 257
-283 439 -532 440 -98 0 -164 -15 -272 -65 -244 -113 -802 -321 -1177 -438
-940 -294 -1822 -460 -2856 -538 -332 -25 -1275 -25 -1599 0 -124 10 -226 19
-228 21 -2 2 11 34 29 72 27 57 33 84 36 152 4 73 1 89 -22 136 -46 94 -128
153 -253 182 -52 12 -100 15 -203 11 -155 -6 -271 -32 -440 -98 -184 -72 -275
-92 -435 -92 -106 -1 -156 3 -204 17 -149 41 -272 116 -393 238 -90 90 -119
129 -100 136 40 13 178 116 243 181 196 197 297 437 361 861 21 135 17 597 -5
738 -25 156 -66 320 -131 519 -134 412 -147 718 -50 1125 l26 109 49 27 c192
105 441 276 623 428 865 725 1269 1747 1095 2774 -22 132 -67 312 -103 418
l-25 72 19 133 c40 277 52 432 57 788 6 373 -2 559 -37 854 -205 1728 -1114
3344 -2480 4409 -571 445 -1202 787 -1882 1021 -504 173 -1012 281 -1558 330
-209 19 -737 27 -940 15z m840 -276 c1804 -138 3439 -1031 4519 -2469 86 -115
233 -323 256 -365 5 -8 -61 50 -146 130 -376 353 -690 611 -1063 874 -166 117
-506 339 -540 352 -14 5 -14 0 0 -40 19 -54 13 -102 -16 -139 -71 -90 -316
-82 -587 19 -420 156 -779 479 -723 649 14 41 58 81 100 90 18 4 30 9 28 11
-2 2 -84 33 -182 68 -581 213 -1224 361 -1853 427 -200 21 -216 24 -408 85
-223 70 -422 127 -595 169 -84 20 -122 35 -142 53 -43 40 -55 36 222 67 69 8
177 18 240 21 63 4 117 8 119 10 10 9 618 0 771 -12z m-2950 -184 c786 -43
1532 -180 2238 -411 400 -131 727 -265 965 -394 1184 -646 2015 -1479 2405
-2411 151 -360 232 -731 232 -1064 0 -326 -61 -596 -195 -865 -351 -704 -1100
-1018 -2025 -849 -843 154 -1811 702 -2770 1568 -80 72 -266 250 -415 396
-148 146 -311 302 -361 346 -397 354 -749 550 -1125 626 -98 20 -143 23 -319
22 -190 0 -220 -3 -416 -37 -289 -51 -443 -67 -689 -74 -364 -10 -668 30 -944
123 -97 33 -279 121 -356 173 -191 127 -339 305 -414 501 -47 121 -64 219 -64
370 1 227 50 414 175 669 82 166 129 222 298 358 624 502 1515 820 2605 928
340 34 825 44 1175 25z m-4437 -2790 c100 -269 195 -457 331 -660 96 -144 288
-337 416 -419 405 -261 898 -251 1520 31 319 145 467 182 730 182 109 1 198
-4 235 -12 416 -91 748 -362 1112 -907 104 -156 330 -535 319 -535 -17 0 -253
344 -377 548 -183 305 -394 529 -609 645 -129 71 -312 117 -462 117 -234 0
-559 -104 -882 -281 -232 -128 -296 -161 -376 -190 -258 -94 -577 -95 -858 -3
-560 183 -1007 661 -1157 1239 -33 129 -55 312 -55 460 l1 120 38 -120 c21
-66 54 -163 74 -215z m-3486 288 c6 -7 13 -74 17 -148 35 -702 196 -1519 418
-2128 84 -231 155 -397 270 -634 56 -115 100 -209 97 -211 -2 -2 -139 -75
-304 -162 -339 -178 -421 -224 -484 -272 -24 -18 -47 -33 -51 -33 -4 0 -23 37
-43 83 -183 428 -270 977 -254 1607 4 135 9 277 12 315 l6 70 -37 -70 c-152
-288 -319 -809 -388 -1210 -54 -315 -61 -413 -61 -810 0 -336 5 -435 30 -625
17 -123 -107 324 -144 520 -46 248 -56 362 -56 685 l0 310 38 195 c240 1233
566 2207 830 2478 51 52 85 65 104 40z m-2535 -1492 c24 -25 81 -111 127 -193
315 -555 613 -955 1013 -1358 l149 -149 9 -126 c45 -567 185 -1073 446 -1605
71 -147 189 -362 239 -439 16 -23 15 -24 -87 -93 -57 -39 -157 -102 -222 -142
l-119 -73 -75 74 c-549 540 -951 1270 -1205 2192 -30 107 -47 154 -53 145 -24
-40 6 -501 57 -849 76 -526 222 -1096 405 -1578 26 -71 38 -112 29 -108 -7 2
-49 10 -94 16 -74 11 -82 15 -99 44 -11 17 -62 101 -114 186 -239 390 -340
599 -453 930 -130 382 -210 752 -255 1175 -30 279 -23 783 16 1100 36 292 127
733 170 818 18 35 53 77 65 77 4 0 27 -20 51 -44z m6168 -205 c-216 -412 -764
-879 -1545 -1316 -180 -100 -531 -276 -803 -400 -742 -340 -1200 -717 -1421
-1170 -23 -47 -44 -85 -46 -85 -3 0 -21 25 -41 55 l-37 55 13 62 c48 247 189
514 347 658 87 80 144 114 488 295 850 446 1288 697 1715 980 465 307 923 683
1193 977 l88 96 50 -53 51 -54 -52 -100z m3276 35 c151 -48 310 -175 445 -356
31 -42 105 -153 163 -249 258 -419 448 -662 792 -1011 117 -118 248 -260 292
-315 44 -55 91 -111 105 -124 25 -23 26 -23 56 -5 30 18 30 18 73 -14 97 -72
371 -254 478 -317 564 -334 1243 -569 1880 -650 69 -8 144 -18 166 -21 32 -4
43 -10 48 -27 3 -12 6 -97 6 -189 l0 -168 23 0 c43 0 181 -40 242 -70 72 -35
158 -117 191 -182 60 -117 67 -247 28 -480 -64 -380 -222 -910 -468 -1571 -87
-233 -154 -445 -186 -589 l-13 -57 80 -88 c158 -174 284 -350 383 -537 l53
-99 -12 -131 c-20 -206 -25 -620 -12 -806 24 -321 69 -556 158 -822 l56 -167
-23 -58 c-96 -242 -230 -411 -485 -616 -146 -117 -216 -162 -371 -240 -360
-180 -799 -303 -1250 -348 -123 -13 -154 -27 -154 -67 0 -17 -15 -19 -200 -25
-110 -4 -360 -4 -554 0 l-354 6 -98 -73 c-130 -98 -400 -368 -499 -500 l-78
-105 69 -6 c115 -11 764 -10 947 1 1065 64 1902 313 2547 758 192 132 378 296
520 457 l92 105 52 -83 c29 -45 60 -95 71 -110 37 -57 683 -349 1200 -543
l220 -82 51 -95 c261 -481 670 -806 1180 -937 571 -148 1172 -17 1642 357 21
17 30 17 205 2 400 -37 591 -44 1127 -44 542 0 690 6 1125 46 1327 120 2588
443 3875 995 61 26 101 30 151 13 83 -28 140 -98 166 -206 61 -246 -159 -730
-558 -1228 -335 -419 -744 -825 -989 -982 -290 -187 -725 -418 -1035 -551
-154 -67 -258 -107 -235 -92 8 6 88 55 176 110 498 307 839 629 1052 989 89
152 182 394 182 474 0 17 -2 18 -19 6 -10 -8 -107 -73 -214 -146 -760 -511
-1640 -842 -2587 -972 -162 -23 -459 -47 -681 -57 l-145 -6 -44 -95 c-24 -52
-51 -98 -59 -101 -9 -3 -70 -58 -137 -122 -240 -231 -484 -387 -794 -508 -328
-127 -439 -161 -655 -199 -141 -25 -524 -25 -681 0 -206 32 -419 90 -648 177
-150 56 -185 59 -236 22 -44 -32 -58 -78 -69 -223 -19 -233 -67 -370 -168
-479 -103 -112 -216 -146 -446 -137 -269 11 -554 98 -996 304 l-185 86 -45
-12 c-45 -12 -46 -12 -70 18 l-23 30 -42 -57 c-24 -31 -69 -82 -102 -112 -286
-263 -803 -214 -1347 128 -174 109 -277 193 -350 286 -74 93 -101 109 -142 82
-44 -29 -34 -62 74 -249 82 -141 106 -193 134 -287 173 -573 138 -1104 -96
-1463 -182 -279 -469 -435 -876 -478 -143 -15 -549 -6 -744 15 -823 92 -1526
357 -2059 777 -57 45 -173 152 -258 238 -228 229 -363 416 -431 599 -30 79
-33 97 -33 202 -1 105 1 120 26 172 71 153 247 247 494 264 83 6 92 9 84 24
-5 9 -53 33 -107 54 -84 32 -226 100 -168 80 11 -3 77 -26 148 -50 158 -55
340 -100 522 -129 128 -21 135 -23 75 -24 -36 0 -112 6 -169 14 -57 8 -106 13
-108 12 -5 -5 190 -45 307 -63 143 -21 381 -21 485 1 217 45 324 152 333 331
l4 83 -83 42 c-125 62 -194 113 -289 208 -200 202 -298 438 -316 766 -7 111
-7 113 26 183 34 75 34 106 -1 117 -55 18 -230 -168 -312 -331 -108 -213 -109
-474 -3 -722 39 -90 130 -245 183 -310 41 -50 41 -50 -93 -27 -493 85 -996
313 -1474 668 -112 84 -155 102 -209 87 -43 -11 -74 -38 -97 -82 -13 -25 -15
-49 -9 -127 15 -226 43 -431 125 -951 22 -134 37 -246 35 -248 -10 -11 -206
108 -325 198 -537 402 -1004 1084 -1230 1795 -42 133 -100 371 -100 411 0 18
7 60 15 93 20 77 8 132 -41 178 -65 61 -143 57 -241 -13 -297 -212 -562 -482
-751 -767 -37 -54 -68 -94 -70 -88 -8 25 20 274 44 379 33 149 73 261 141 396
140 279 326 487 590 662 122 81 149 108 159 160 14 73 0 99 -122 226 -254 264
-444 546 -587 869 l-25 56 117 -49 c215 -92 416 -139 671 -158 181 -14 444 5
558 41 27 9 50 5 155 -30 371 -122 735 -210 1153 -280 626 -105 1306 -147
1989 -121 182 6 346 15 365 19 22 4 40 16 49 33 13 23 13 28 -1 50 l-16 25
-329 6 c-1486 30 -2659 272 -3781 783 -593 269 -963 520 -1396 944 -267 262
-444 472 -635 755 -401 594 -641 1195 -805 2017 -82 411 -112 729 -103 1078
20 711 204 1266 612 1845 47 66 90 137 97 158 19 61 184 263 638 777 585 662
824 980 1065 1415 44 80 97 162 124 190 27 28 61 71 77 97 16 27 33 48 37 48
5 0 40 -18 78 -41 272 -159 574 -240 894 -240 218 0 379 27 557 92 93 34 136
55 343 169 265 147 480 231 661 260 99 15 248 5 340 -24z m9119 -1626 c82 -35
208 -125 272 -193 79 -85 125 -163 162 -273 129 -387 -13 -924 -417 -1571 -35
-57 -67 -103 -72 -103 -17 0 -110 77 -149 125 -44 53 -151 256 -151 287 0 10
25 62 56 114 252 438 369 847 335 1175 -18 169 -46 256 -159 481 -4 9 49 -9
123 -42z m-2995 -1304 c0 -3 3 -12 7 -22 5 -13 2 -16 -8 -12 -55 21 -63 19
-28 -6 20 -14 39 -31 42 -39 17 -44 29 -312 24 -512 -11 -379 -68 -681 -197
-1046 -144 -403 -203 -611 -449 -1599 -284 -1137 -332 -1391 -344 -1810 l-2
-85 -30 82 c-16 45 -32 80 -35 77 -3 -3 -10 -29 -16 -57 -10 -50 -11 -47 -18
83 -14 262 22 712 90 1110 94 554 242 1092 500 1816 240 674 334 1099 334
1513 0 180 -17 323 -55 474 -6 22 -4 27 11 27 11 1 42 9 69 19 44 16 53 16 78
4 15 -7 27 -15 27 -17z m-13591 -133 c0 -41 -2 -45 -11 -26 -10 20 -4 73 7 73
3 0 5 -21 4 -47z m-2999 -313 c50 -26 117 -86 260 -234 218 -225 469 -433 730
-606 69 -45 126 -83 128 -85 2 -2 -17 -34 -42 -72 -25 -37 -55 -99 -67 -137
-22 -66 -22 -73 -11 -230 34 -460 198 -870 485 -1212 147 -176 261 -257 418
-300 86 -24 252 -24 339 0 186 51 352 183 435 348 l33 68 44 -37 c109 -92 376
-282 528 -375 116 -71 336 -189 444 -238 l98 -44 -88 -28 c-130 -41 -369 -94
-534 -120 -125 -19 -185 -22 -440 -22 -257 0 -313 3 -438 22 -420 66 -786 209
-1132 443 -156 105 -279 210 -438 373 l-132 136 52 -78 c84 -124 261 -354 686
-892 220 -278 399 -506 398 -508 -10 -10 -343 188 -376 223 -13 14 -70 53
-126 87 -189 112 -391 276 -637 517 -92 90 -201 209 -243 263 -267 349 -466
778 -558 1209 -48 220 -58 315 -63 584 -5 225 -2 286 16 450 34 292 72 438
133 503 23 24 37 23 98 -8z m4005 -1879 c61 -40 173 -104 250 -141 130 -64
360 -150 398 -150 9 0 17 -3 17 -7 0 -21 43 -266 69 -393 109 -531 235 -927
434 -1361 82 -178 139 -340 192 -544 124 -481 91 -738 -110 -826 -88 -39 -251
-25 -430 38 -38 14 -137 57 -218 96 -141 68 -148 72 -143 97 3 14 9 54 12 90
5 58 3 69 -18 100 -21 30 -38 40 -143 75 -140 48 -197 76 -282 138 -149 110
-216 256 -216 467 1 132 23 249 78 415 55 164 125 322 223 500 99 181 100 193
18 320 -76 118 -176 326 -215 445 -63 195 -87 387 -71 561 13 141 20 170 34
161 6 -4 61 -40 121 -81z m-3710 -1955 c313 -37 664 -53 859 -39 l118 8 77
-49 c251 -161 639 -337 988 -449 353 -114 812 -202 1160 -223 l111 -7 6 -30
c9 -46 7 -184 -4 -296 -15 -142 -52 -278 -106 -390 -84 -173 -228 -289 -424
-343 -73 -19 -108 -23 -245 -23 -219 1 -397 37 -690 142 -363 130 -881 409
-1178 635 -90 68 -92 64 -26 -60 78 -148 227 -310 415 -454 222 -169 718 -483
1104 -698 336 -188 882 -453 1164 -566 39 -15 65 -29 59 -31 -6 -2 -67 10
-135 27 -68 17 -154 38 -192 46 -242 53 -930 270 -1311 413 -154 58 -218 89
-342 163 -662 398 -1247 1000 -1548 1593 -150 294 -214 575 -147 642 18 17 56
16 287 -11z m6822 -2326 c78 -27 292 -140 265 -140 -38 0 -332 127 -392 170
-22 15 27 4 127 -30z m8437 -141 c-3 -5 -24 -19 -47 -30 l-42 -20 40 34 c36
31 65 41 49 16z m417 -46 c13 -16 12 -17 -3 -4 -17 13 -22 21 -14 21 2 0 10
-8 17 -17z m-12433 -608 c132 -40 504 -110 817 -154 385 -55 738 -81 1107 -81
l228 0 6 -27 c3 -16 14 -61 25 -101 10 -40 19 -76 19 -81 0 -8 -228 -60 -380
-85 -255 -43 -362 -51 -695 -51 -420 0 -595 20 -953 110 -97 24 -178 42 -180
40 -3 -2 13 -35 36 -72 81 -137 228 -269 447 -400 238 -143 610 -329 898 -449
65 -27 113 -50 108 -52 -14 -5 -211 25 -366 54 -349 67 -702 182 -970 317
-403 202 -750 517 -964 874 l-52 88 183 7 c226 8 564 50 587 73 8 9 47 5 99
-10z m23762 -2542 c0 -17 -186 -362 -260 -483 -665 -1086 -1713 -1956 -2805
-2327 -71 -24 -139 -50 -150 -57 -35 -23 -376 -111 -615 -160 -278 -56 -679
-112 -935 -130 l-80 -6 70 21 c724 210 1362 450 2000 752 375 178 570 296 723
441 155 147 242 288 282 460 12 48 20 90 18 91 -2 2 -35 -14 -73 -37 -301
-175 -789 -394 -1180 -527 -787 -270 -1572 -393 -2410 -378 -536 9 -966 61
-1475 179 -390 89 -597 182 -630 283 -30 92 77 179 375 305 326 138 529 277
565 386 11 32 15 35 39 30 55 -14 815 -19 1001 -7 903 58 1729 264 2544 635
78 36 80 36 100 17 37 -33 62 -41 168 -52 224 -25 602 12 993 96 376 81 911
228 1565 429 151 46 170 50 170 39z m-19603 -455 c-3 -8 -6 -5 -6 6 -1 11 2
17 5 13 3 -3 4 -12 1 -19z m12938 -697 c-6 -5 -39 -11 -75 -15 -61 -6 -63 -5
-35 8 33 16 125 22 110 7z m-3907 -637 c-3 -14 -5 -12 -10 9 -3 19 -2 25 4 19
6 -6 8 -18 6 -28z m969 -208 c0 -12 -5 -13 -21 -4 -31 16 -32 18 -4 18 15 0
25 -6 25 -14z m-210 -236 c29 -9 50 -13 47 -9 -2 4 101 -46 229 -112 692 -353
1359 -614 2052 -803 623 -170 979 -232 1550 -270 611 -42 1125 -26 1665 49
224 32 620 112 872 176 l197 51 158 -26 c337 -54 651 -91 1198 -141 214 -20
391 -38 393 -39 10 -11 -383 -277 -603 -408 -988 -587 -2027 -928 -3144 -1033
-238 -22 -256 -19 -121 16 366 96 777 258 1103 435 222 120 437 257 424 271
-2 2 -65 -7 -138 -21 -481 -89 -969 -130 -1529 -130 -903 2 -1703 123 -2575
391 -644 197 -1389 534 -1939 875 -44 27 -93 55 -110 62 -134 58 -229 221
-212 365 19 159 148 295 305 321 56 9 109 3 178 -20z m-12957 -321 c442 -55
979 -506 1574 -1324 180 -248 195 -266 226 -279 l30 -12 -63 -45 c-383 -278
-754 -340 -1058 -178 -127 68 -349 278 -334 316 7 20 -91 265 -172 428 -208
416 -449 607 -695 550 -95 -22 -198 -29 -232 -16 -29 11 -29 12 -23 74 3 34
16 90 27 124 18 52 33 73 98 135 133 127 281 205 432 226 91 13 95 13 190 1z
m-1040 -532 c0 -8 -7 -14 -15 -14 -25 0 -17 17 13 26 1 1 2 -5 2 -12z m12040
-2862 c0 -23 -2 -24 -20 -13 -23 15 -25 24 -7 31 23 10 27 7 27 -18z m-135
-27 c11 -33 46 -362 55 -518 14 -261 -2 -474 -51 -669 -69 -275 -218 -473
-437 -581 -126 -63 -348 -122 -542 -145 -567 -67 -803 -151 -967 -347 -126
-149 -191 -340 -215 -632 -10 -122 -14 -143 -27 -140 -58 11 -73 17 -101 41
-65 55 -111 158 -135 306 -20 126 -19 185 9 307 86 377 286 679 598 902 260
187 641 295 948 270 82 -7 87 -9 150 -57 36 -27 108 -90 160 -141 110 -105
152 -126 219 -106 21 7 50 21 65 33 58 46 56 29 90 771 18 378 34 689 37 692
5 5 93 23 122 25 10 0 20 -5 22 -11z m6488 -172 c437 -81 900 -127 1432 -144
l229 -7 15 -27 c25 -43 5 -74 -94 -156 -215 -176 -545 -369 -815 -475 -486
-191 -1052 -258 -1549 -182 -281 43 -818 221 -1226 407 -208 95 -545 278 -726
394 -56 35 -70 50 -84 88 -10 26 -16 48 -14 51 3 2 43 -19 89 -46 520 -306
1113 -469 1710 -469 445 0 669 53 809 191 77 76 106 143 105 244 -1 50 -7 94
-17 118 -9 20 -12 37 -6 37 5 0 69 -11 142 -24z m-5845 -645 c172 -311 358
-564 591 -803 57 -60 102 -108 99 -108 -3 0 -31 11 -62 25 -176 78 -421 144
-628 171 -73 9 -134 17 -135 18 -3 3 -33 901 -33 986 l0 55 55 -119 c30 -66
81 -167 113 -225z m1612 -64 c289 -127 616 -219 930 -263 183 -26 633 -27 706
-1 105 36 160 124 152 242 -2 36 -2 64 2 63 3 -2 97 -49 210 -105 113 -56 266
-127 340 -159 137 -58 421 -164 439 -164 6 0 14 -7 18 -15 5 -8 47 -54 94
-103 131 -136 202 -234 210 -291 15 -101 -411 -144 -896 -91 -406 45 -972 160
-1286 263 -115 38 -325 135 -472 218 -225 127 -525 344 -677 489 l-65 62 85
-45 c47 -25 141 -69 210 -100z m-3736 -54 l39 -8 -89 -28 c-117 -38 -328 -141
-434 -212 -232 -157 -414 -350 -558 -595 -61 -104 -143 -288 -169 -380 -17
-62 -38 -84 -243 -261 -190 -165 -397 -276 -437 -236 -45 45 -57 271 -23 417
78 328 219 580 459 821 272 272 576 426 955 484 95 15 422 13 500 -2z m3830
-477 c85 -57 284 -174 336 -198 7 -4 80 -129 114 -196 41 -81 86 -225 86 -275
0 -97 -28 -121 -135 -120 -152 2 -389 107 -684 304 -236 157 -421 305 -343
274 9 -4 61 -9 115 -12 114 -7 254 11 308 38 79 39 112 117 91 213 -5 25 -7
46 -4 46 2 0 55 -33 116 -74z"/>
<path d="M11960 27584 c-19 -2 -91 -9 -160 -14 -896 -76 -1865 -418 -2390
-844 -532 -433 -623 -967 -222 -1309 164 -139 419 -241 708 -281 196 -27 350
-30 649 -10 385 25 1034 26 1255 1 725 -81 1161 -294 1491 -729 215 -281 537
-653 759 -876 663 -664 1446 -1089 2190 -1188 163 -22 447 -22 594 0 885 130
1379 790 1210 1614 -53 258 -179 534 -372 817 -521 765 -1206 1405 -2032 1900
-214 128 -637 341 -852 430 -509 208 -1017 350 -1538 429 -328 50 -444 58
-860 61 -217 2 -411 1 -430 -1z m645 -164 c105 -5 255 -17 335 -25 156 -17
465 -62 490 -72 8 -3 24 -7 35 -8 59 -6 116 -18 121 -26 3 -5 9 -7 13 -5 4 3
25 0 47 -5 21 -6 55 -12 74 -15 162 -24 743 -208 945 -299 28 -13 132 -59 232
-104 234 -104 363 -168 570 -287 650 -372 1220 -850 1702 -1429 350 -419 563
-762 660 -1058 22 -68 42 -139 44 -158 2 -19 6 -39 9 -44 3 -6 11 -59 18 -120
12 -110 8 -245 -11 -335 -5 -25 -12 -56 -15 -70 -9 -42 -55 -173 -76 -215 -76
-151 -236 -329 -385 -425 -218 -143 -487 -223 -798 -237 -397 -18 -906 112
-1345 343 -644 339 -1114 763 -1814 1634 -277 345 -523 533 -866 663 -415 157
-875 212 -1583 188 -190 -6 -416 -16 -504 -22 -195 -14 -507 -6 -628 15 -123
22 -303 79 -404 129 -173 84 -290 206 -342 358 -31 94 -24 234 18 341 116 294
456 584 958 815 110 51 172 77 370 154 126 48 255 90 255 82 0 -3 6 -1 13 5
17 14 287 89 382 106 17 3 59 12 95 20 36 8 79 17 95 19 330 55 504 76 705 83
80 3 147 8 149 10 8 7 241 4 436 -6z"/>
<path d="M9907 22195 c-274 -69 -558 -331 -726 -670 -114 -230 -155 -397 -155
-630 0 -176 15 -249 74 -371 116 -239 360 -330 633 -236 48 16 87 29 87 27 0
-1 -20 -44 -44 -96 -47 -102 -96 -241 -116 -330 -11 -51 -11 -61 6 -95 29 -58
57 -73 174 -89 139 -21 372 -78 490 -122 251 -94 451 -229 583 -394 97 -121
95 -115 68 -222 -35 -133 -115 -363 -178 -507 -266 -610 -737 -1158 -1299
-1513 -99 -62 -119 -90 -118 -159 3 -83 55 -114 279 -169 268 -64 464 -84 754
-76 343 10 651 72 948 191 834 335 1446 1030 1676 1901 l24 90 33 -64 c37 -74
121 -166 191 -212 150 -96 372 -97 576 -4 431 198 783 735 833 1273 43 469
-165 804 -515 829 -229 16 -468 -96 -695 -325 -128 -129 -214 -249 -300 -415
l-56 -107 -22 109 c-68 343 -267 712 -505 935 -216 202 -478 353 -737 424 -85
24 -95 26 -245 48 -153 23 -458 15 -600 -16 -196 -42 -412 -127 -574 -226 -26
-16 -42 -21 -38 -13 168 379 190 719 65 976 -52 108 -122 179 -223 229 -71 35
-82 38 -183 41 -70 2 -127 -2 -165 -12z m349 -290 c34 -20 50 -40 76 -92 31
-63 33 -75 33 -168 0 -124 -26 -216 -88 -306 -50 -74 -109 -118 -165 -126 -57
-8 -86 2 -132 43 -57 52 -83 126 -83 239 -1 140 43 262 126 352 76 83 157 103
233 58z m-877 -931 c80 -57 80 -261 -1 -329 -82 -69 -178 8 -178 143 0 138 99
241 179 186z m2146 -14 c299 -35 553 -137 779 -314 86 -68 206 -188 246 -246
l24 -35 -27 24 c-15 14 -27 22 -27 18 0 -3 -46 16 -102 42 -114 53 -351 151
-367 151 -5 0 27 -57 71 -127 98 -157 186 -335 229 -468 29 -90 33 -112 33
-225 1 -121 0 -127 -31 -193 -103 -217 -381 -317 -865 -312 -177 2 -178 1
-178 -47 0 -20 -30 -78 -40 -78 -3 0 -21 26 -40 58 -178 294 -481 520 -877
651 -111 36 -330 91 -366 91 -29 0 -27 17 8 102 193 458 613 796 1102 887 169
32 282 37 428 21z m2851 -750 c77 -48 118 -152 117 -300 0 -88 -4 -118 -27
-185 -90 -262 -290 -365 -419 -215 -47 55 -67 116 -74 220 -14 219 109 451
265 500 37 12 100 3 138 -20z m-968 -1040 c44 -41 57 -80 57 -170 0 -96 -20
-147 -75 -194 -37 -31 -73 -33 -116 -7 -47 29 -69 83 -69 171 0 92 16 141 61
186 29 28 42 34 77 34 30 0 50 -6 65 -20z m-2033 -502 c-8 -76 -56 -271 -95
-383 -46 -131 -148 -335 -228 -455 -126 -189 -255 -331 -442 -485 -55 -46 -80
-74 -85 -95 -15 -67 22 -126 87 -136 69 -12 361 57 543 127 451 174 838 501
1085 916 71 119 156 303 190 409 l23 71 96 44 c53 24 132 67 175 96 44 29 81
51 83 49 2 -2 -7 -51 -22 -107 -117 -465 -362 -884 -710 -1217 -367 -350 -818
-574 -1340 -664 -175 -30 -598 -33 -769 -5 -61 10 -111 18 -112 20 -1 1 53 46
120 100 434 345 789 793 1030 1299 69 145 161 379 196 499 l22 76 79 -51 79
-51 -5 -57z m355 -51 c74 -19 111 -22 281 -22 l196 0 -34 -80 c-156 -364 -402
-660 -732 -877 -104 -69 -253 -147 -361 -188 -50 -20 -53 -20 -38 -3 107 123
230 301 311 453 91 169 185 434 221 620 28 141 24 133 49 126 12 -4 60 -16
107 -29z"/>
</g>
</svg>
