<?xml version="1.0" standalone="no"?>
<!DOCTYPE svg PUBLIC "-//W3C//DTD SVG 20010904//EN"
 "http://www.w3.org/TR/2001/REC-SVG-20010904/DTD/svg10.dtd">
<svg version="1.0" xmlns="http://www.w3.org/2000/svg"
 width="980.000000pt" height="937.000000pt" viewBox="0 0 980.000000 937.000000"
 preserveAspectRatio="xMidYMid meet">

<g transform="translate(0.000000,937.000000) scale(0.100000,-0.100000)"
fill="#000000" stroke="none">
<path d="M4760 9350 c-840 -57 -1641 -262 -2336 -600 -557 -270 -969 -562
-1359 -961 -601 -616 -942 -1331 -1047 -2194 -19 -155 -16 -612 5 -769 25
-185 62 -364 108 -528 410 -1453 1798 -2621 3454 -2907 266 -45 396 -55 732
-56 l321 0 17 -90 c39 -202 129 -422 244 -595 74 -112 260 -298 376 -377 375
-253 829 -332 1304 -227 234 52 311 94 326 177 9 45 -35 191 -170 572 -152
429 -237 698 -224 709 2 1 85 22 184 45 847 201 1109 282 1438 448 528 267
925 680 1222 1272 248 495 391 1051 435 1689 71 1060 -274 2092 -971 2897
-120 139 -383 394 -512 497 -711 567 -1528 878 -2587 983 -186 19 -767 27
-960 15z m845 -301 c1317 -95 2466 -661 3138 -1546 826 -1090 989 -2685 404
-3958 -189 -411 -478 -812 -744 -1035 -136 -113 -255 -190 -428 -276 -294
-145 -548 -222 -1200 -363 -532 -115 -542 -119 -582 -195 -41 -78 24 -319 280
-1041 46 -132 88 -250 91 -262 6 -19 2 -23 -32 -33 -78 -20 -249 -40 -357 -40
-493 0 -904 245 -1115 667 -50 101 -103 261 -126 382 -13 72 -24 102 -44 124
-30 34 -49 38 -558 127 -519 91 -706 126 -932 176 -772 169 -1300 403 -1790
792 -128 103 -396 372 -504 507 -399 500 -661 1112 -755 1760 -58 401 -46 830
34 1180 226 988 984 1845 2145 2425 953 476 2012 685 3075 609z"/>
<path d="M5185 8233 c-513 -63 -944 -253 -1308 -578 -232 -206 -384 -422 -475
-675 -102 -283 -136 -519 -136 -940 0 -207 18 -341 64 -475 40 -118 60 -125
290 -114 310 14 623 40 691 55 37 8 87 28 112 44 59 37 81 78 73 139 -7 56 -7
56 0 112 5 41 1 55 -45 140 -63 119 -80 199 -62 296 38 207 238 385 493 438
274 58 497 -68 563 -316 20 -73 19 -212 -1 -280 -29 -96 -87 -199 -186 -328
-244 -317 -282 -370 -324 -456 -95 -197 -139 -528 -115 -880 21 -301 95 -793
126 -842 9 -14 38 -34 63 -46 l47 -21 230 33 c585 85 596 88 637 161 24 43 21
103 -23 449 -44 352 -38 460 34 580 45 75 122 143 295 259 191 129 285 204
392 313 432 439 572 1149 354 1807 -47 143 -158 365 -241 482 -95 134 -265
301 -389 383 -207 137 -451 223 -734 257 -79 9 -358 12 -425 3z"/>
<path d="M5223 3219 c-17 -5 -47 -27 -66 -49 -19 -22 -38 -40 -44 -40 -5 0
-19 -9 -30 -20 -30 -27 -38 -134 -24 -315 17 -224 28 -258 95 -292 63 -33 726
-8 805 30 14 7 36 28 49 47 24 35 24 37 19 240 -7 279 -26 351 -108 392 -30
16 -68 18 -349 17 -173 0 -329 -5 -347 -10z"/>
</g>
</svg>
