<?xml version="1.0" standalone="no"?>
<!DOCTYPE svg PUBLIC "-//W3C//DTD SVG 20010904//EN"
 "http://www.w3.org/TR/2001/REC-SVG-20010904/DTD/svg10.dtd">
<svg version="1.0" xmlns="http://www.w3.org/2000/svg"
 width="2948.000000pt" height="2760.000000pt" viewBox="0 0 2948.000000 2760.000000"
 preserveAspectRatio="xMidYMid meet">
<g class="header__logo-svg" transform="translate(0.000000,2760.000000) scale(0.100000,-0.100000)"
fill="#ffffff" stroke="none">
<path d="M14820 27180 c-411 -26 -879 -100 -1255 -199 l-110 -29 -155 18
c-334 40 -593 54 -995 54 -397 0 -573 -9 -900 -45 -1238 -137 -2246 -550
-2870 -1174 -364 -365 -581 -774 -671 -1270 -29 -157 -27 -595 3 -762 50 -276
135 -498 279 -736 30 -49 54 -92 54 -97 0 -15 -360 -373 -480 -476 -452 -393
-1025 -774 -1752 -1168 l-88 -47 -94 193 c-395 807 -613 1692 -672 2733 -5 97
-11 130 -31 172 -31 68 -98 134 -171 170 -50 25 -68 28 -152 28 -82 0 -103 -4
-150 -26 -187 -88 -363 -349 -545 -808 -195 -493 -412 -1312 -540 -2035 -14
-77 -26 -141 -29 -143 -4 -5 -129 133 -227 252 -194 235 -405 545 -589 865
-126 221 -173 286 -245 343 -84 67 -148 91 -240 91 -66 0 -90 -4 -138 -26 -78
-36 -154 -116 -200 -209 -81 -165 -185 -671 -229 -1114 -17 -175 -17 -788 0
-960 72 -712 248 -1335 541 -1924 33 -66 57 -121 53 -121 -9 0 -162 121 -262
208 -41 36 -158 149 -260 252 -185 186 -265 251 -365 295 -204 91 -396 24
-508 -175 -68 -123 -107 -272 -144 -555 -26 -198 -26 -726 0 -900 100 -675
352 -1242 772 -1740 105 -125 314 -331 424 -420 l75 -60 -38 -3 c-45 -4 -318
22 -466 44 -156 24 -261 16 -343 -24 -219 -108 -271 -390 -143 -769 71 -209
168 -397 331 -643 491 -739 1279 -1376 2120 -1715 66 -27 122 -50 124 -51 1
-2 -9 -19 -24 -38 -44 -57 -44 -106 0 -211 83 -204 226 -445 371 -625 85 -107
253 -275 364 -363 223 -180 574 -376 860 -482 402 -149 867 -241 1440 -287
176 -13 861 -17 1052 -5 l126 8 -13 -60 c-73 -313 -61 -713 30 -1017 28 -91
107 -144 192 -128 59 11 97 57 153 183 91 207 212 404 364 591 95 119 231 256
222 225 -3 -11 -14 -87 -26 -170 -74 -549 -64 -1108 31 -1635 23 -129 88 -410
118 -512 l19 -67 -66 -49 c-84 -63 -214 -196 -275 -283 -102 -144 -181 -336
-212 -515 -30 -172 -15 -424 34 -582 l19 -61 -326 -244 -325 -245 -121 162
c-229 305 -365 466 -580 684 -390 396 -730 614 -1076 688 -134 29 -346 25
-473 -9 -113 -30 -255 -97 -353 -166 -82 -57 -236 -198 -281 -257 -26 -34 -45
-46 -110 -68 -111 -39 -292 -135 -403 -214 -125 -88 -365 -328 -453 -452 -81
-115 -179 -308 -207 -410 -26 -93 -36 -245 -21 -325 24 -133 110 -256 233
-336 97 -62 178 -82 307 -77 119 5 129 9 346 128 100 54 263 112 369 131 112
19 303 7 406 -26 546 -175 1025 -871 1435 -2085 34 -102 79 -225 100 -275 82
-199 194 -344 311 -401 53 -26 69 -29 154 -29 84 0 102 3 152 28 231 113 418
495 500 1018 30 196 33 688 5 869 -16 100 -47 250 -63 302 -3 12 133 122 548
440 304 233 559 428 566 432 7 4 44 -5 85 -23 308 -128 670 -122 995 16 l83
35 117 -109 c839 -782 1836 -1243 2994 -1385 161 -19 231 -22 583 -22 318 -1
431 3 553 17 200 23 479 70 625 106 l117 28 64 -81 c128 -162 297 -299 481
-390 136 -68 231 -100 380 -129 l115 -22 0 -40 c0 -64 -41 -940 -45 -943 -1
-2 -47 26 -101 61 -352 230 -711 337 -1129 337 -321 0 -581 -60 -870 -200
-575 -279 -972 -793 -1101 -1425 -23 -113 -25 -144 -20 -240 16 -266 86 -414
231 -486 177 -87 402 -18 697 211 l63 49 21 -102 c92 -438 373 -640 752 -541
151 40 294 115 519 275 589 419 1075 552 1527 418 144 -43 287 -111 561 -269
273 -157 418 -210 575 -210 188 0 338 76 511 258 133 140 199 284 199 437 0
82 -19 165 -55 235 -14 28 -23 50 -21 50 2 0 67 -39 143 -87 244 -154 471
-253 647 -284 38 -6 114 -9 171 -7 87 4 111 9 168 35 86 41 150 101 187 177
54 110 62 211 30 366 -10 52 -18 96 -16 98 2 1 46 -9 97 -23 313 -88 774 -178
1129 -220 190 -23 569 -31 712 -15 300 33 475 120 543 271 25 56 27 70 23 153
-3 65 -10 105 -26 140 -12 27 -20 51 -18 54 3 2 51 -2 108 -9 162 -22 668 -19
833 4 575 81 1083 282 1540 608 314 225 381 312 379 499 0 74 -4 95 -31 152
-40 85 -97 147 -175 189 l-63 34 -285 6 c-1345 33 -2662 360 -3865 961 -232
116 -438 228 -432 235 3 2 69 -16 148 -41 1023 -316 2188 -409 3286 -260 1297
175 2542 686 3592 1475 216 162 331 258 358 298 31 46 31 116 1 161 -50 72
-41 70 -445 101 -403 31 -608 49 -898 79 -306 32 -293 19 -114 112 1026 530
1911 1396 2480 2423 162 293 309 625 309 697 0 49 -26 97 -71 130 -57 43 -68
41 -669 -140 -951 -286 -1358 -393 -1750 -461 -190 -33 -189 -47 -4 100 181
144 359 304 564 509 632 632 1056 1265 1156 1727 23 105 23 296 1 387 -64 257
-283 439 -532 440 -98 0 -164 -15 -272 -65 -244 -113 -802 -321 -1177 -438
-940 -294 -1822 -460 -2856 -538 -332 -25 -1275 -25 -1599 0 -124 10 -226 19
-228 21 -2 2 11 34 29 72 27 57 33 84 36 152 4 73 1 89 -22 136 -46 94 -128
153 -253 182 -52 12 -100 15 -203 11 -155 -6 -271 -32 -440 -98 -184 -72 -275
-92 -435 -92 -106 -1 -156 3 -204 17 -149 41 -272 116 -393 238 -90 90 -119
129 -100 136 40 13 178 116 243 181 196 197 297 437 361 861 21 135 17 597 -5
738 -25 156 -66 320 -131 519 -134 412 -147 718 -50 1125 l26 109 49 27 c192
105 441 276 623 428 865 725 1269 1747 1095 2774 -22 132 -67 312 -103 418
l-25 72 19 133 c40 277 52 432 57 788 6 373 -2 559 -37 854 -205 1728 -1114
3344 -2480 4409 -571 445 -1202 787 -1882 1021 -504 173 -1012 281 -1558 330
-209 19 -737 27 -940 15z m960 -284 c509 -52 961 -149 1422 -305 1158 -393
2167 -1112 2921 -2082 103 -132 246 -333 300 -419 24 -39 1 -19 -247 212 -339
316 -722 619 -1106 878 -167 112 -385 250 -394 250 -3 0 2 -16 10 -35 19 -47
18 -94 -6 -132 -125 -206 -821 6 -1171 356 -110 109 -152 179 -153 253 -1 57
23 94 82 125 l43 21 -58 22 c-640 242 -1278 393 -1998 474 -206 23 -230 28
-370 76 -173 58 -404 125 -590 171 -126 31 -209 70 -188 89 9 9 324 46 503 60
178 13 819 4 1000 -14z m-3065 -176 c993 -53 1961 -268 2828 -629 169 -70 278
-124 452 -221 759 -426 1367 -927 1806 -1490 335 -430 578 -920 679 -1374 12
-50 25 -110 30 -133 21 -89 40 -304 40 -440 0 -623 -265 -1161 -722 -1465
-416 -277 -959 -355 -1579 -228 -792 164 -1711 687 -2629 1498 -85 75 -292
272 -460 437 -317 312 -460 442 -632 571 -287 218 -562 350 -868 416 -91 19
-133 22 -320 22 -177 -1 -236 -5 -330 -23 -620 -116 -1141 -120 -1565 -11
-334 86 -603 244 -770 453 -232 289 -281 660 -144 1071 33 99 116 277 170 367
91 150 494 446 850 624 620 311 1422 505 2294 554 209 12 655 12 870 1z
m-4392 -2916 c206 -504 479 -848 803 -1014 170 -87 337 -124 554 -123 286 2
542 69 913 239 250 115 400 153 632 161 122 4 182 1 254 -11 379 -66 714 -314
1044 -772 110 -153 235 -354 419 -674 l20 -35 -26 30 c-62 72 -243 335 -349
507 -63 102 -147 230 -187 282 -149 200 -353 371 -527 446 -240 101 -520 100
-830 -6 -145 -49 -316 -128 -489 -225 -248 -139 -333 -174 -519 -215 -108 -23
-337 -24 -462 -1 -390 71 -766 304 -1035 642 -81 102 -143 201 -203 328 -119
249 -164 436 -171 717 l-5 185 59 -175 c33 -96 80 -225 105 -286z m-3536 414
c6 -7 13 -74 17 -148 37 -741 208 -1574 455 -2228 75 -197 124 -310 233 -534
56 -115 100 -210 97 -212 -2 -2 -159 -85 -348 -185 -189 -100 -379 -206 -421
-236 l-78 -54 -37 87 c-116 278 -186 564 -231 947 -14 118 -18 232 -19 530 0
209 3 412 7 450 l8 70 -30 -56 c-50 -97 -145 -328 -199 -484 -134 -387 -217
-776 -251 -1180 -21 -256 -10 -691 25 -985 5 -38 4 -41 -6 -20 -26 61 -92 308
-124 464 -55 277 -67 392 -72 711 -5 281 -4 295 22 440 161 905 426 1829 657
2290 126 251 250 390 295 333z m-2535 -1492 c24 -25 81 -111 127 -193 315
-555 613 -955 1013 -1358 l149 -149 9 -126 c42 -529 166 -999 399 -1510 62
-135 179 -357 254 -480 22 -36 41 -68 44 -72 4 -9 -163 -122 -324 -219 l-115
-70 -53 45 c-64 55 -246 256 -350 386 -380 477 -716 1186 -896 1888 -13 50
-26 92 -30 92 -13 0 -18 -150 -8 -284 50 -707 205 -1436 443 -2080 35 -94 63
-172 62 -172 -1 -1 -43 6 -93 15 l-93 16 -55 88 c-84 134 -203 336 -289 491
-230 412 -426 1089 -491 1696 -35 326 -30 806 11 1145 36 292 127 733 170 818
18 35 53 77 65 77 4 0 27 -20 51 -44z m6177 -187 c-86 -172 -212 -333 -411
-524 -422 -408 -1055 -804 -1908 -1194 -798 -366 -1222 -714 -1467 -1206 -66
-132 -93 -206 -122 -335 l-19 -85 -1 127 c-2 340 83 657 242 893 50 75 185
209 257 256 30 20 195 109 365 199 1548 813 2207 1250 2830 1875 l179 180 49
-52 48 -51 -42 -83z m3193 36 c153 -32 260 -95 393 -230 102 -104 168 -192
285 -385 247 -407 470 -692 804 -1025 105 -104 225 -233 267 -285 42 -52 92
-113 111 -134 34 -39 35 -39 58 -23 14 9 30 17 37 17 7 0 48 -27 92 -60 396
-297 953 -582 1460 -744 284 -91 632 -167 925 -201 78 -9 133 -20 138 -27 4
-7 8 -93 8 -190 l0 -178 28 0 c53 0 182 -39 252 -76 111 -58 184 -151 216
-274 65 -255 -104 -950 -476 -1950 -83 -223 -200 -599 -200 -643 0 -5 32 -43
71 -85 149 -159 276 -335 384 -532 l58 -104 -12 -146 c-20 -225 -25 -604 -12
-793 23 -318 70 -570 153 -807 28 -80 51 -163 52 -185 1 -55 -101 -262 -184
-372 -107 -144 -367 -368 -555 -479 -353 -207 -869 -363 -1375 -415 -129 -14
-160 -26 -160 -67 0 -17 -15 -19 -196 -25 -108 -4 -356 -4 -550 0 l-354 6 -48
-33 c-186 -132 -412 -352 -552 -538 l-80 -107 132 -8 c192 -12 841 -1 1058 17
1078 91 1916 378 2531 867 120 95 318 286 392 377 28 34 53 62 56 62 3 -1 31
-41 61 -91 30 -49 68 -102 85 -118 64 -62 699 -344 1195 -531 l205 -78 51 -94
c304 -562 825 -917 1454 -989 127 -14 380 -7 499 15 304 56 585 178 813 353
l76 58 184 -16 c401 -37 592 -44 1128 -44 543 0 693 6 1125 46 1336 122 2586
443 3875 995 95 41 168 26 241 -46 64 -64 84 -126 82 -250 -5 -315 -265 -788
-732 -1330 -233 -271 -613 -641 -754 -736 -224 -150 -644 -383 -922 -512 -164
-76 -415 -182 -432 -182 -4 0 52 36 126 81 584 350 964 717 1173 1133 52 104
112 271 124 345 l7 44 -54 -40 c-328 -241 -809 -510 -1214 -678 -319 -133
-768 -270 -1125 -344 -363 -74 -857 -129 -1180 -131 l-75 -1 -40 -92 c-26 -60
-48 -95 -63 -103 -12 -6 -75 -63 -140 -126 -226 -222 -482 -385 -787 -504 -60
-23 -145 -56 -188 -74 -217 -86 -477 -139 -729 -147 -352 -12 -668 45 -1053
189 -168 63 -200 67 -251 33 -48 -31 -57 -60 -71 -214 -7 -80 -21 -182 -33
-226 -55 -216 -168 -343 -350 -390 -88 -23 -334 -16 -470 14 -208 45 -439 129
-746 272 -105 49 -199 89 -208 89 -9 0 -31 -6 -49 -14 -33 -13 -34 -13 -56 20
l-23 34 -31 -48 c-75 -114 -200 -209 -342 -259 -76 -26 -90 -28 -250 -28 -155
0 -180 3 -279 28 -259 68 -514 195 -766 382 -71 53 -119 100 -172 165 -77 97
-103 112 -143 86 -44 -29 -34 -62 75 -249 107 -184 136 -258 185 -472 59 -261
76 -571 42 -775 -79 -471 -335 -789 -743 -920 -193 -62 -443 -85 -764 -70
-1080 52 -1993 407 -2606 1015 -252 250 -420 498 -470 695 -24 92 -21 210 6
283 61 163 248 269 498 284 98 6 102 7 86 24 -9 10 -48 30 -88 45 -76 29 -216
93 -216 98 0 1 84 -25 188 -60 205 -68 353 -105 537 -132 107 -15 114 -17 66
-20 -30 -2 -92 2 -139 7 -47 6 -87 9 -89 7 -5 -5 202 -44 297 -56 125 -15 325
-12 421 6 221 42 336 152 347 333 l4 76 -63 30 c-149 70 -303 194 -402 323
-141 183 -227 449 -227 703 0 73 4 93 30 147 35 75 36 83 11 106 -29 26 -52
14 -140 -72 -234 -231 -317 -520 -236 -830 32 -127 122 -302 222 -434 49 -67
53 -65 -87 -43 -473 77 -984 309 -1470 669 -113 83 -155 101 -210 86 -44 -12
-95 -64 -105 -109 -15 -69 29 -445 115 -985 27 -171 48 -312 45 -314 -6 -6
-128 62 -224 126 -471 312 -925 883 -1194 1502 -71 163 -150 391 -193 560 -45
177 -50 229 -30 308 26 97 1 164 -74 202 -81 41 -127 26 -284 -93 -264 -201
-493 -442 -671 -705 -37 -56 -70 -100 -73 -98 -9 9 19 274 38 364 81 383 296
737 595 979 28 22 96 70 152 107 113 74 139 101 149 152 14 75 0 99 -130 234
-183 189 -333 391 -460 617 -52 94 -74 140 -127 260 l-18 42 24 -9 c13 -5 42
-18 63 -29 56 -28 231 -88 341 -116 282 -71 657 -79 895 -19 l58 14 154 -50
c974 -315 2163 -450 3354 -380 131 7 146 10 162 30 23 29 23 45 -2 70 -18 18
-33 20 -197 20 -490 0 -1140 47 -1608 116 -966 142 -1769 391 -2585 801 -240
120 -367 196 -548 326 -810 581 -1409 1366 -1757 2302 -176 474 -318 1134
-356 1655 -11 155 -8 555 6 655 3 22 10 78 16 125 29 223 101 505 185 718 100
254 286 584 451 801 18 24 38 62 45 83 18 62 179 258 638 778 585 662 824 980
1065 1415 44 79 98 162 124 190 26 28 62 73 80 101 l32 52 82 -49 c260 -155
574 -240 892 -240 169 0 256 9 395 43 162 39 256 80 500 216 399 223 701 306
932 257z m9157 -1630 c216 -92 375 -243 454 -431 41 -97 60 -205 60 -349 0
-282 -80 -560 -268 -930 -88 -175 -249 -445 -264 -445 -19 0 -101 61 -135 101
-50 58 -108 157 -145 246 l-29 71 35 59 c64 104 161 296 207 405 201 479 215
877 42 1213 -50 98 -49 95 -43 95 3 0 42 -16 86 -35z m-2952 -1346 c1 -13 8
-60 15 -104 20 -128 17 -630 -5 -785 -41 -288 -91 -487 -203 -802 -95 -268
-126 -372 -235 -783 -178 -678 -389 -1546 -454 -1868 -61 -304 -69 -389 -69
-732 -1 -337 9 -447 64 -729 15 -78 27 -142 25 -144 -1 -2 -19 43 -39 100
-163 463 -202 1060 -115 1738 75 584 220 1175 459 1870 191 555 222 649 265
797 159 554 196 1017 111 1387 -9 38 -15 70 -14 71 2 1 32 11 68 22 61 19 67
19 95 3 19 -10 31 -25 32 -41z m-13597 -101 c-1 -50 -1 -52 -14 -29 -10 18
-11 32 -4 53 6 15 12 28 14 28 2 0 4 -24 4 -52z m-3000 -318 c50 -26 117 -86
260 -234 218 -225 469 -433 730 -606 69 -45 126 -83 128 -85 2 -2 -17 -34 -42
-72 -25 -37 -55 -99 -67 -137 -22 -66 -22 -73 -11 -230 38 -516 244 -977 591
-1326 141 -141 291 -205 481 -204 121 0 210 23 325 82 97 50 227 181 277 279
l37 73 53 -43 c284 -230 604 -434 913 -582 l149 -72 -84 -26 c-296 -88 -530
-130 -825 -147 -615 -35 -1204 121 -1697 450 -183 122 -280 201 -439 360
l-136 136 75 -105 c101 -143 193 -262 650 -841 215 -272 389 -496 387 -498
-10 -10 -341 187 -375 223 -14 15 -65 51 -115 80 -347 204 -788 621 -1013 957
-260 387 -430 858 -487 1348 -42 359 5 963 90 1149 48 103 65 111 145 71z
m4000 -1876 c178 -118 424 -233 602 -280 l67 -18 7 -46 c17 -124 80 -437 125
-620 109 -448 202 -720 378 -1102 89 -193 133 -318 191 -543 207 -803 -50
-1032 -768 -685 l-144 70 6 32 c24 134 17 182 -33 217 -14 10 -66 30 -116 45
-184 57 -341 161 -415 276 -57 89 -82 187 -82 325 -1 252 100 559 305 930 93
170 93 175 6 320 -172 284 -256 517 -278 772 -14 160 7 402 33 385 6 -4 58
-39 116 -78z m-3705 -1958 c313 -37 664 -53 859 -39 l118 8 77 -49 c560 -359
1433 -631 2156 -672 l115 -7 0 -136 c0 -524 -175 -825 -541 -928 -98 -27 -397
-25 -535 5 -220 48 -416 114 -671 228 -333 148 -603 306 -964 563 -18 13 -18
11 2 -34 113 -256 327 -455 851 -794 578 -373 1175 -691 1785 -951 95 -41 171
-75 169 -77 -3 -3 -132 27 -291 67 -22 6 -112 29 -200 51 -317 81 -862 256
-1212 390 -426 162 -1013 613 -1408 1079 -328 388 -560 807 -611 1103 -17 99
-12 178 14 204 18 17 55 16 287 -11z m6880 -2346 c58 -26 245 -130 234 -130
-42 0 -373 143 -424 183 -28 22 109 -16 190 -53z m8385 -119 c0 -4 -21 -17
-47 -29 l-48 -22 40 34 c36 31 55 37 55 17z m411 -48 c13 -16 12 -17 -3 -4
-17 13 -22 21 -14 21 2 0 10 -8 17 -17z m-12435 -608 c132 -39 590 -124 884
-164 336 -46 701 -71 1042 -71 l228 0 6 -27 c3 -16 16 -65 28 -110 13 -46 21
-83 19 -83 -2 0 -63 -13 -136 -29 -321 -72 -628 -105 -962 -104 -262 0 -455
17 -683 59 -122 22 -366 81 -415 100 -17 6 -16 1 6 -42 65 -128 186 -249 367
-369 225 -147 628 -354 1010 -517 l115 -49 -65 6 c-190 18 -569 97 -795 166
-290 89 -606 241 -830 398 -252 177 -482 424 -634 680 l-52 86 183 7 c226 8
564 50 587 73 8 9 47 5 97 -10z m23764 -2541 c0 -16 -162 -322 -236 -446 -243
-404 -517 -752 -874 -1108 -283 -284 -538 -495 -850 -705 -344 -231 -736 -428
-1095 -550 -77 -26 -150 -53 -162 -61 -54 -34 -544 -151 -853 -203 -253 -43
-753 -101 -766 -89 -2 2 58 21 134 43 912 257 2156 783 2532 1070 227 174 368
380 409 598 4 26 6 47 4 47 -3 0 -46 -23 -97 -52 -159 -90 -539 -273 -728
-351 -666 -275 -1321 -437 -2078 -514 -252 -26 -1018 -26 -1270 0 -475 48
-975 142 -1270 239 -247 80 -364 183 -316 276 38 74 145 139 431 262 286 124
462 250 504 363 10 27 12 27 68 20 32 -5 270 -8 528 -8 375 0 506 4 650 18
856 85 1589 279 2340 622 77 35 79 35 99 16 37 -33 62 -41 168 -52 224 -25
602 12 993 96 376 81 911 228 1565 429 148 45 170 50 170 40z m-19603 -456
c-3 -7 -5 -2 -5 12 0 14 2 19 5 13 2 -7 2 -19 0 -25z m12947 -697 c3 -4 -30
-12 -74 -18 -44 -5 -80 -8 -80 -6 0 2 15 9 33 17 36 16 113 21 121 7z m-3911
-641 c-7 -27 -10 -25 -15 10 -3 22 -2 27 8 19 6 -5 10 -19 7 -29z m969 -197
c-6 -2 -9 -9 -6 -15 4 -5 -4 -4 -17 2 -36 19 -35 20 2 19 19 0 28 -3 21 -6z
m-9962 -238 c23 -55 43 -106 43 -112 0 -7 4 -13 9 -13 4 0 8 -4 8 -10 0 -5 16
-44 35 -86 44 -94 59 -188 53 -324 -8 -173 -57 -264 -173 -321 -76 -37 -191
-55 -280 -42 l-60 8 -13 50 c-8 28 -16 104 -18 170 -5 117 3 186 36 315 14 57
81 200 104 223 10 9 14 17 11 17 -12 0 56 83 129 157 38 40 71 71 72 70 1 -1
21 -47 44 -102z m9756 -4 c24 -11 42 -17 40 -12 -3 4 131 -61 297 -144 882
-442 1736 -742 2619 -920 543 -109 1268 -163 1837 -136 575 28 1027 95 1594
238 l217 54 158 -25 c336 -54 650 -91 1197 -141 214 -20 391 -38 393 -39 2 -2
-50 -42 -115 -88 -834 -597 -1799 -1020 -2798 -1228 -302 -63 -723 -121 -970
-135 l-100 -5 130 35 c331 91 645 212 955 366 242 121 573 320 558 334 -2 2
-48 -5 -103 -16 -704 -134 -1578 -173 -2335 -103 -1320 120 -2548 522 -3715
1214 -71 42 -151 89 -176 103 -60 34 -115 96 -148 166 -22 48 -26 70 -26 146
0 82 3 97 33 157 33 67 96 134 154 164 90 46 218 53 304 15z m-12966 -322
c463 -57 1013 -533 1652 -1429 76 -105 115 -151 143 -167 43 -24 88 -29 129
-13 14 5 194 136 401 291 206 155 377 280 378 278 23 -35 94 -119 146 -171 40
-41 61 -71 56 -76 -6 -5 -261 -201 -567 -436 -306 -234 -566 -438 -577 -452
-31 -40 -37 -90 -17 -159 86 -312 101 -417 100 -725 -1 -198 -5 -272 -22 -385
-41 -265 -97 -458 -180 -620 -45 -88 -125 -185 -152 -185 -26 0 -92 86 -136
175 -24 50 -77 189 -118 310 -427 1261 -928 2002 -1521 2253 -310 131 -652
129 -990 -5 -117 -46 -197 -86 -263 -131 -95 -65 -195 -53 -270 32 -44 50 -57
105 -44 186 24 161 139 361 307 538 144 151 262 243 431 334 74 40 74 40 74
16 0 -46 30 -125 65 -171 44 -58 135 -104 220 -113 73 -8 181 8 293 42 71 21
88 23 125 13 160 -42 340 -252 545 -634 74 -138 83 -150 111 -153 23 -2 34 3
46 22 16 23 14 30 -41 168 -114 287 -240 510 -363 641 -105 111 -195 164 -317
186 -49 9 -76 8 -162 -9 -114 -22 -168 -25 -206 -10 -23 8 -26 15 -26 54 0 25
12 82 26 128 23 74 32 89 82 137 146 139 300 220 457 241 87 11 92 11 185 -1z
m13365 -2549 c613 -477 1219 -872 1720 -1123 468 -234 898 -382 1313 -453 202
-34 330 -27 502 28 130 41 254 130 297 212 40 77 49 208 19 281 -18 42 -28 42
141 10 422 -78 912 -127 1438 -143 l219 -7 15 -27 c25 -43 5 -74 -94 -156
-215 -176 -545 -369 -815 -475 -486 -191 -1052 -258 -1549 -182 -281 43 -818
221 -1226 407 -211 96 -559 285 -725 394 -249 163 -461 315 -540 388 -258 239
-452 436 -610 616 -178 204 -340 401 -340 415 0 4 26 -15 58 -42 31 -27 111
-91 177 -143z m-1013 -940 c296 -356 702 -668 1178 -905 258 -129 286 -137
590 -180 25 -3 155 -8 290 -11 264 -5 319 2 396 45 75 42 113 132 101 237 -2
24 -2 44 1 44 3 0 50 -24 106 -54 203 -109 487 -234 751 -330 l140 -51 95
-100 c142 -148 213 -246 221 -304 15 -101 -411 -144 -896 -91 -406 45 -972
160 -1286 263 -346 114 -856 429 -1169 724 -96 90 -234 259 -376 458 -89 125
-237 346 -259 385 -13 25 12 -3 117 -130z m-1348 -22 c3 -79 15 -469 26 -868
11 -399 23 -739 26 -757 6 -38 45 -88 83 -107 16 -8 83 -16 176 -19 459 -19
973 -239 1113 -477 36 -60 37 -136 3 -205 -36 -71 -158 -195 -233 -236 -55
-29 -72 -33 -133 -33 -96 1 -175 34 -439 183 -117 67 -260 143 -317 170 -511
241 -1016 225 -1584 -49 -146 -70 -355 -195 -490 -292 -276 -199 -445 -272
-574 -248 -113 20 -192 155 -222 375 -14 110 -7 201 26 327 69 269 203 499
404 698 197 194 466 338 740 395 107 22 292 35 392 27 81 -7 89 -10 145 -52
32 -24 104 -87 159 -141 115 -110 156 -131 224 -111 21 7 50 21 65 33 59 46
57 29 90 771 17 377 33 689 36 692 3 2 46 12 96 20 50 9 109 23 130 30 22 8
42 15 45 15 4 1 9 -63 13 -141z m816 -493 c0 -2 14 -19 30 -37 17 -18 30 -36
30 -39 0 -4 12 -20 28 -36 15 -16 64 -75 110 -130 219 -266 556 -560 855 -747
l78 -48 44 17 c96 36 128 120 100 252 -5 19 11 12 97 -46 82 -55 322 -198 357
-213 4 -2 23 -30 43 -63 152 -254 200 -470 116 -516 -72 -40 -280 10 -488 117
-125 64 -391 236 -530 344 -122 95 -444 416 -547 545 -164 207 -293 405 -398
614 -57 115 -135 286 -135 298 0 4 47 -64 105 -151 58 -86 105 -159 105 -161z
m-312 -234 c172 -311 358 -564 591 -803 57 -60 102 -108 99 -108 -3 0 -31 11
-62 25 -176 78 -421 144 -628 171 -73 9 -134 17 -135 18 -3 3 -33 901 -33 986
l0 55 55 -119 c30 -66 81 -167 113 -225z m-2124 -117 c39 -7 38 -7 -69 -45
-532 -187 -946 -603 -1121 -1124 l-39 -117 -90 -82 c-239 -219 -439 -353 -533
-359 -34 -2 -39 1 -57 38 -28 58 -33 250 -10 363 63 311 238 629 475 861 266
261 615 427 1000 475 46 6 394 -2 444 -10z"/>
<path d="M11890 26639 c-718 -61 -1354 -231 -1935 -517 -211 -104 -329 -175
-480 -288 -591 -440 -705 -1000 -278 -1364 141 -121 380 -220 633 -264 200
-35 391 -41 695 -22 568 35 1058 32 1385 -10 626 -79 1050 -294 1361 -690 621
-791 1017 -1182 1544 -1527 735 -481 1487 -672 2131 -542 593 120 1005 503
1111 1032 26 133 24 374 -6 523 -67 343 -231 668 -549 1091 -880 1171 -2181
2029 -3637 2399 -288 73 -597 128 -935 166 -169 19 -869 28 -1040 13z m894
-169 c385 -32 832 -110 1181 -206 229 -63 558 -175 700 -239 27 -12 115 -51
195 -85 705 -307 1366 -755 1895 -1285 324 -323 523 -559 760 -899 230 -331
357 -642 387 -948 37 -376 -106 -729 -387 -954 -184 -149 -397 -241 -670 -290
-139 -25 -456 -25 -615 -1 -598 93 -1193 386 -1777 876 -275 230 -642 628
-1001 1085 -333 424 -648 625 -1187 756 -330 81 -722 109 -1256 91 -184 -6
-406 -16 -494 -22 -200 -14 -520 -6 -640 15 -492 90 -765 315 -765 632 0 335
335 692 915 974 619 301 1270 466 2007 510 165 10 576 4 752 -10z"/>
<path d="M9907 21254 c-333 -80 -680 -456 -815 -884 -51 -160 -66 -251 -67
-405 0 -265 74 -452 224 -565 87 -66 148 -84 281 -84 104 -1 124 2 203 31 48
17 87 30 87 28 0 -1 -20 -44 -44 -96 -47 -102 -96 -241 -116 -330 -11 -51 -11
-61 6 -95 29 -58 57 -73 174 -89 139 -21 372 -78 490 -122 251 -94 451 -229
583 -394 97 -121 95 -115 68 -222 -35 -133 -115 -363 -178 -507 -266 -610
-737 -1158 -1299 -1513 -99 -62 -119 -90 -118 -159 3 -83 55 -114 279 -169
268 -64 464 -84 754 -76 343 10 651 72 948 191 834 335 1447 1030 1676 1900
l24 90 34 -64 c109 -206 307 -309 537 -280 471 59 937 603 1048 1223 22 120
22 346 0 444 -65 298 -246 481 -496 500 -353 27 -757 -271 -1000 -740 l-56
-107 -22 109 c-45 229 -134 442 -275 655 -62 94 -110 151 -216 257 -153 152
-284 246 -465 335 -104 52 -314 126 -386 138 -221 35 -260 38 -450 33 -220 -6
-319 -23 -511 -87 -110 -36 -261 -106 -358 -166 -26 -16 -42 -21 -38 -13 80
180 122 330 138 494 38 375 -112 671 -375 741 -65 17 -194 17 -269 -2z m349
-289 c34 -20 50 -40 76 -92 31 -64 33 -74 33 -173 0 -110 -14 -167 -60 -260
-52 -102 -140 -170 -219 -170 -136 0 -224 189 -182 389 40 189 157 330 275
331 19 0 53 -11 77 -25z m-873 -935 c40 -32 61 -98 55 -179 -17 -231 -238
-231 -238 0 0 69 19 120 60 161 44 44 83 50 123 18z m2145 -10 c577 -63 1055
-436 1255 -980 67 -181 102 -418 88 -600 -6 -82 -8 -87 -52 -145 -253 -329
-690 -473 -1087 -359 -223 64 -411 195 -524 365 -177 264 -416 449 -752 580
-121 47 -272 91 -392 115 -49 9 -93 20 -97 24 -11 9 53 157 110 255 148 256
357 454 621 588 262 134 545 187 830 157z m2848 -751 c115 -70 154 -291 88
-488 -32 -95 -62 -145 -121 -203 -55 -54 -105 -78 -163 -78 -50 0 -73 11 -123
58 -133 128 -106 468 52 644 85 95 183 119 267 67z m-992 -1024 c71 -34 108
-176 72 -281 -40 -119 -134 -161 -201 -90 -91 96 -61 324 49 372 40 17 42 17
80 -1z m-2009 -517 c-8 -77 -56 -272 -95 -383 -75 -215 -220 -468 -372 -650
-82 -98 -220 -234 -305 -298 -80 -60 -99 -107 -68 -167 23 -45 67 -63 134 -55
166 19 447 102 621 183 380 176 741 504 958 871 64 109 137 267 178 387 l28
81 93 43 c52 24 130 67 175 96 45 30 83 52 85 50 6 -6 -32 -161 -67 -271 -179
-557 -573 -1061 -1070 -1370 -275 -170 -620 -297 -955 -350 -155 -25 -500 -31
-670 -11 -223 26 -217 13 -63 138 566 454 977 1051 1203 1748 l38 116 79 -51
79 -50 -6 -57z m355 -51 c74 -19 111 -22 281 -22 l196 0 -25 -59 c-155 -382
-430 -708 -784 -928 -82 -51 -272 -145 -336 -166 l-33 -11 18 23 c10 13 51 65
91 116 213 272 376 630 437 965 23 121 22 118 48 111 12 -4 60 -16 107 -29z"/>
</g>
</svg>
